HIERARCHY
ROOT Hips
{
  OFFSET 196.326 95.9168 97.7182
  CHANNELS 6 Xposition Yposition Zposition Zrotation Xrotation Yrotation
  JOINT LeftUpLeg
  {
    OFFSET 8.64259 1.95398 -2.38835
    CHANNELS 3 Zrotation Xrotation Yrotation
    JOINT LeftLeg
    {
      OFFSET 43.7702 0 0
      CHANNELS 3 Zrotation Xrotation Yrotation
      JOINT LeftFoot
      {
        OFFSET 40.6238 0 0
        CHANNELS 3 Zrotation Xrotation Yrotation
        JOINT LeftToeBase
        {
          OFFSET 12.7242 0 0
          CHANNELS 3 Zrotation Xrotation Yrotation
          End Site
          {
            OFFSET 0 0 0
          }
        }
      }
    }
  }
  JOINT RightUpLeg
  {
    OFFSET -8.2249 1.95398 -2.59336
    CHANNELS 3 Zrotation Xrotation Yrotation
    JOINT RightLeg
    {
      OFFSET 43.5653 0 0
      CHANNELS 3 Zrotation Xrotation Yrotation
      JOINT RightFoot
      {
        OFFSET 40.6238 0 0
        CHANNELS 3 Zrotation Xrotation Yrotation
        JOINT RightToeBase
        {
          OFFSET 12.7242 0 0
          CHANNELS 3 Zrotation Xrotation Yrotation
          End Site
          {
            OFFSET 0 0 0
          }
        }
      }
    }
  }
  JOINT Spine
  {
    OFFSET 0.165834 0.87714 6.61349
    CHANNELS 3 Zrotation Xrotation Yrotation
    JOINT Spine1
    {
      OFFSET 7.38963 1.71661e-005 0
      CHANNELS 3 Zrotation Xrotation Yrotation
      JOINT Spine2
      {
        OFFSET 11.9445 1.14441e-005 0
        CHANNELS 3 Zrotation Xrotation Yrotation
        JOINT Spine3
        {
          OFFSET 14.7254 4.19617e-005 0
          CHANNELS 3 Zrotation Xrotation Yrotation
          JOINT Spine4
          {
            OFFSET 10.9679 0 0
            CHANNELS 3 Zrotation Xrotation Yrotation
            JOINT RightShoulder
            {
              OFFSET 2.46616 -1.6653 3.69651
              CHANNELS 3 Zrotation Xrotation Yrotation
              JOINT RightArm
              {
                OFFSET 13.0012 0 0
                CHANNELS 3 Zrotation Xrotation Yrotation
                JOINT RightForeArm
                {
                  OFFSET 28.7848 1.52588e-005 0
                  CHANNELS 3 Zrotation Xrotation Yrotation
                  JOINT RightHand
                  {
                    OFFSET 26.5688 1.52588e-005 0
                    CHANNELS 3 Zrotation Xrotation Yrotation
                    End Site
                    {
                      OFFSET 0 0 0
                    }
                  }
                }
              }
            }
            JOINT LeftShoulder
            {
              OFFSET 2.38034 -1.29275 -3.75231
              CHANNELS 3 Zrotation Xrotation Yrotation
              JOINT LeftArm
              {
                OFFSET 16.3182 6.10351e-005 0
                CHANNELS 3 Zrotation Xrotation Yrotation
                JOINT LeftForeArm
                {
                  OFFSET 27.0901 0 0
                  CHANNELS 3 Zrotation Xrotation Yrotation
                  JOINT LeftHand
                  {
                    OFFSET 24.5451 1.52588e-005 0
                    CHANNELS 3 Zrotation Xrotation Yrotation
                    End Site
                    {
                      OFFSET 0 0 0
                    }
                  }
                }
              }
            }
            JOINT Neck
            {
              OFFSET 5.0226 -0.0266342 0
              CHANNELS 3 Zrotation Xrotation Yrotation
              JOINT Head
              {
                OFFSET 6.69363 2.86102e-005 0
                CHANNELS 3 Zrotation Xrotation Yrotation
                End Site
                {
                  OFFSET 0 0 0
                }
              }
            }
          }
        }
      }
    }
  }
}
MOTION
Frames:	18
Frame Time:	0.0416667
-45.7747 81.8782 -44.4035 103.43 -39.9131 102.91 -165.7 39.6584 88.4116 -36.6928 14.7243 -6.32137 54.6352 -0.280171 9.37829 -2.81041 -19.5999 -28.647 165.297 45.5131 98.6891 -81.91 7.84987 -1.38091 53.8423 -2.44222 -1.5218 29.8815 -0.80995 16.3135 0.84292 9.0364 -90.3877 8.80656 1.50947 -0.867685 -2.86385 1.46985 -0.933292 -25.4055 1.70046 -0.3738 -5.39282 1.70046 -0.373811 81.5107 -48.5388 -114.209 19.9883 -4.01824 10.5416 11.88 2.92764 -79.756 -17.7393 -0.714457 -1.01467 -94.4887 -38.4546 68.3237 -46.6048 4.39784 15.0124 7.22999 5.67316 -43.5292 20.0771 1.85289 5.39778 -12.896 -18.4815 -3.98948 21.733 -19.462 -3.82709 
-43.0566 80.4642 -41.4046 102.376 -39.3128 100.494 -166.183 43.4653 85.6484 -45.4325 14.7935 -4.46538 53.2217 0.738128 12.9886 14.4347 -6.75664 -30.5024 167.665 49.3809 95.8157 -75.8026 9.12703 -0.75406 57.3483 -2.6552 -1.55919 34.0938 0.0952003 16.2886 0.604119 9.11062 -90.1554 8.65489 1.13659 -0.381148 -3.01564 1.11872 -0.430821 -25.5547 1.19859 -0.0218868 -5.54205 1.19859 -0.021901 81.4288 -49.3505 -114.022 17.7695 -4.47092 6.65992 10.745 4.00622 -77.0712 -16.6541 -0.747913 -0.328336 -95.2504 -38.4001 67.0295 -46.0897 5.5114 15.9312 7.47003 8.90506 -39.0297 18.0855 1.81339 6.16272 -9.99719 -18.278 -4.21361 20.3726 -19.0978 -4.13291 
-40.6627 80.0673 -38.3493 102.751 -36.8773 99.087 -166.047 43.3701 83.8523 -49.3463 14.8337 -4.00848 52.252 0.276277 12.8609 25.9721 1.05806 -32.2286 170.735 48.4905 91.3915 -63.7307 10.3675 0.538462 59.2808 -2.44857 -1.38225 30.8694 -0.744583 19.3167 0.384084 9.46754 -90.0251 7.93913 0.755779 -0.0913831 -3.73158 0.751036 -0.124572 -26.2685 0.748305 0.140004 -6.25583 0.748295 0.139982 80.4298 -49.6464 -115.396 16.131 -2.3261 4.6584 10.5289 5.37185 -75.0351 -14.1961 -0.653442 0.0524326 -96.9071 -38.4657 64.3036 -43.8964 6.97561 15.4457 5.93156 9.98549 -34.4591 15.9586 1.41898 4.96544 -5.59209 -18.7906 -3.72 18.644 -19.3817 -4.34343 
-37.801 79.2823 -35.2859 103.216 -37.9615 99.6885 -164.744 44.7699 84.5194 -56.6648 13.4079 -3.6896 54.0299 2.40968 14.279 39.962 9.68329 -34.0697 174.503 46.3719 90.0884 -48.5571 8.85101 1.53101 54.8569 -0.664867 -0.186709 21.817 -3.03239 20.9002 0.667235 9.67603 -90.1401 7.52382 1.27157 -0.339638 -4.14657 1.25538 -0.395284 -26.6867 1.31485 0.0582853 -6.67405 1.31484 0.05829 79.5843 -48.4095 -117.16 15.5512 -0.212316 5.09236 8.85224 4.97551 -73.1396 -14.2738 -0.553048 -0.787817 -97.5804 -38.5179 63.2147 -42.4994 8.5421 14.5962 4.38886 10.9454 -30.616 14.3071 1.24009 4.69113 -3.88723 -19.3035 -2.46912 18.693 -19.901 -4.18831 
-34.9228 78.5748 -32.2568 102.386 -38.835 100.205 -163.682 46.187 85.3728 -63.2055 11.8231 -3.11269 59.0202 7.36135 15.9228 42.2176 11.1527 -32.7344 177.303 43.2401 90.1154 -30.6407 1.96595 1.99438 44.9669 2.2879 2.42768 18.3342 -3.29245 16.4237 0.908117 9.68308 -90.3084 7.51242 1.67957 -0.691685 -4.15766 1.64751 -0.764952 -26.7014 1.80978 -0.154776 -6.68876 1.80979 -0.154769 79.6809 -48.6338 -116.924 13.9814 -0.112268 4.27977 6.18743 3.96364 -70.8607 -15.4649 -0.645734 -0.431943 -97.5706 -38.4354 63.1964 -41.9389 8.08056 15.382 4.39741 11.4476 -29.5618 14.5148 1.31358 5.06757 -4.49441 -19.2383 -2.41813 19.8862 -19.8292 -3.80592 
-32.4387 78.4412 -29.1783 101.321 -37.5646 99.9688 -164.051 46.2166 85.9511 -67.0488 11.0903 -2.44158 62.3137 11.0392 17.1741 44.8982 12.7777 -32.8843 177.965 39.94 89.9475 -18.1324 0.741221 2.53182 37.016 3.83167 4.2927 23.4496 -2.07348 15.7636 0.793894 9.72364 -90.4463 7.43201 1.39213 -0.94824 -4.23858 1.34905 -1.0086 -26.7788 1.61273 -0.485944 -6.76612 1.61272 -0.485947 78.8151 -48.7501 -118.166 11.8208 -0.660968 2.99788 3.82574 2.68912 -67.2906 -16.5135 -0.794976 0.247125 -96.7115 -38.553 64.6628 -41.5293 6.56118 16.8272 5.62506 11.4149 -31.1712 14.5548 1.49961 6.28783 -4.48396 -18.8318 -0.823594 20.1144 -19.77 -4.57652 
-30.2626 77.7183 -25.8449 100.178 -35.0672 98.7235 -165.192 47.6294 86.0515 -72.1263 13.6652 -1.67737 60.1684 9.66096 17.8912 54.5916 19.2407 -30.5964 176.57 41.3194 89.7204 -21.0747 4.39262 3.25206 36.8124 3.42032 3.94643 18.2676 -3.41908 17.445 0.728773 9.74656 -90.4678 7.38534 1.25302 -0.982853 -4.28542 1.20856 -1.03705 -26.8242 1.49046 -0.560791 -6.81158 1.49046 -0.560792 77.963 -50.4185 -118.71 9.47913 -0.781614 3.29666 1.91125 1.26941 -65.9531 -16.6785 -0.928728 1.17978 -96.6537 -37.7792 64.441 -40.5968 6.00427 18.9469 6.04439 10.7153 -32.9988 16.0967 1.69992 6.60946 -5.0607 -19.1532 -2.31568 21.3552 -19.8516 -3.89786 
-28.7718 77.0496 -22.6264 99.1223 -31.3883 97.352 -167.205 50.0862 86.4281 -77.275 16.8966 -0.828416 58.0014 7.08757 15.597 54.1555 20.5067 -24.4222 174.82 44.5864 89.4423 -30.8455 3.82338 3.65081 43.5315 2.27374 2.46709 14.1187 -4.92938 20.3962 0.607951 9.80733 -90.5463 7.26274 0.978429 -1.12257 -4.40836 0.928088 -1.16455 -26.9443 1.27056 -0.776622 -6.93169 1.27058 -0.776615 78.9462 -50.6805 -117.166 8.92797 -0.197634 2.77885 0.15095 0.388168 -63.5972 -15.9474 -0.882097 1.20904 -96.838 -37.1282 63.8602 -39.0945 6.17041 20.0311 6.25409 10.5663 -34.0595 15.6645 1.65402 6.5875 -4.61753 -20.1138 -2.92469 21.8831 -20.6873 -3.65997 
-27.4273 75.808 -19.6025 98.4481 -28.3127 97.281 -170.317 53.5439 88.7499 -82.8769 20.9939 -0.207961 54.4858 3.44219 13.7763 52.2017 20.8489 -16.987 173.148 49.3706 90.5892 -42.5175 4.10021 3.18142 49.3812 0.712418 0.913715 16.422 -4.05841 18.4949 0.58526 9.86839 -90.6819 7.14069 0.875363 -1.38356 -4.53074 0.813642 -1.42074 -27.0645 1.25069 -1.05655 -7.05183 1.25069 -1.05656 79.1258 -50.8378 -116.839 8.53611 0.953079 2.91793 -3.76546 -1.61513 -61.9899 -13.8841 -0.750544 1.17439 -96.5262 -36.3712 64.0658 -37.3843 6.6044 21.1513 7.14664 11.4215 -35.7664 15.3784 1.59134 6.36986 -4.13422 -21.0183 -3.73302 22.3947 -21.3896 -3.23753 
-26.0253 74.2924 -16.885 98.7788 -27.1544 98.2408 -173.763 55.5483 92.5735 -87.53 23.7358 0.161796 53.7702 2.94463 14.4704 54.148 22.2638 -17.549 171.175 52.5624 93.2522 -50.6386 4.10759 2.31385 51.2745 -0.136372 0.214829 19.994 -3.30331 19.2867 0.69569 10.0426 -90.8553 6.79327 1.02409 -1.72622 -4.87848 0.947126 -1.76961 -27.4108 1.49549 -1.33871 -7.39812 1.4955 -1.33871 78.1736 -50.0867 -118.544 7.62567 2.14272 3.25851 -6.8556 -3.7751 -60.2077 -15.2424 -0.859952 1.45671 -96.4885 -36.2474 64.0769 -35.9358 6.49664 22.2342 7.39007 10.7825 -37.2226 15.6915 1.6461 6.52398 -2.77508 -21.4681 -3.49384 22.3099 -21.7322 -3.01231 
-24.9936 73.7066 -14.5671 99.1192 -26.1296 98.5554 -175.078 55.8277 94.5466 -89.7384 24.4314 0.408725 51.4711 1.91699 15.0686 56.7107 25.4706 -13.8665 169.241 53.1166 94.5019 -53.5325 5.93324 2.97433 53.2938 -0.563065 -0.0651799 18.4641 -4.01354 21.3856 0.705938 10.2445 -90.9374 6.38937 1.01294 -1.88029 -5.2826 0.929212 -1.92302 -27.8135 1.53117 -1.48903 -7.80081 1.53116 -1.48904 77.2532 -49.8598 -119.988 5.63436 1.91925 1.70646 -5.75571 -3.48626 -56.448 -14.5713 -0.835542 1.54609 -96.5321 -36.0444 63.9159 -35.0717 6.60632 22.961 7.70638 10.9395 -38.0495 16.3689 1.788 6.97707 -1.16674 -21.8797 -3.05563 21.3932 -22.1114 -3.13662 
-23.5962 72.1848 -11.9571 99.1128 -24.9888 97.9403 -174.923 56.9449 95.0693 -94.956 23.2914 0.715052 49.7251 0.794869 14.4704 60.2332 27.9542 -15.2186 167.025 55.8796 95.7844 -59.198 5.60211 2.42478 55.2884 -1.36856 -0.654321 21.7328 -2.98628 20.0139 0.691129 10.3423 -90.978 6.19346 0.967855 -1.9555 -5.47867 0.880888 -1.9962 -28.0084 1.51077 -1.57434 -7.99576 1.51076 -1.57435 77.4425 -49.6616 -119.798 4.28934 2.04663 0.538804 -7.55695 -5.16515 -54.2318 -14.6837 -0.922152 2.23076 -96.5733 -36.0357 63.842 -34.167 7.78953 23.3092 7.35513 11.1646 -38.0955 14.8843 1.77914 7.88091 -0.748679 -22.2303 -2.32785 21.3514 -22.5794 -3.33937 
-22.1039 70.5065 -9.80831 99.4274 -24.2215 97.7934 -175.183 57.2714 95.8338 -100.468 25.1014 0.779972 45.8921 -2.66237 13.6577 68.795 34.1914 -17.0286 164.011 58.119 97.6845 -64.5972 6.1069 2.15163 57.8075 -2.13702 -1.16258 22.0117 -2.93379 20.1016 0.777632 10.4132 -91.1024 6.0527 1.08957 -2.20138 -5.61972 0.99167 -2.24717 -28.148 1.70072 -1.77233 -8.13538 1.70071 -1.77233 78.5264 -48.9382 -118.514 3.6496 1.90049 -0.566818 -8.04424 -6.72549 -51.0173 -13.7665 -0.962366 3.06544 -97.1751 -36.3352 62.9516 -33.341 8.60555 23.8823 7.35912 12.0336 -37.6513 13.7616 1.49772 6.83625 -0.334606 -22.9265 -1.36976 21.096 -23.3758 -3.35658 
-20.5262 68.7395 -8.00255 99.7448 -24.099 98.2435 -176.048 56.9953 97.4645 -105.514 27.3993 0.697231 42.904 -6.13917 10.2047 70.1855 37.0846 -13.4036 161.493 60.159 100.678 -70.3964 7.39307 1.4246 59.7571 -2.78687 -1.55001 23.0769 -2.76095 20.8571 0.879155 10.4773 -91.2202 5.926 1.2442 -2.43512 -5.74672 1.13587 -2.48748 -28.2739 1.91842 -1.94886 -8.26125 1.91842 -1.94886 78.3287 -48.1142 -119.167 2.92845 2.11641 -0.812166 -8.10073 -7.73348 -48.4619 -13.2167 -0.931619 3.09898 -97.0778 -36.2955 63.0986 -33.2965 8.86549 24.8201 6.93529 11.7226 -37.4785 14.5381 1.54831 6.62082 -0.0350515 -23.1907 -0.557142 21.2232 -23.7719 -3.48803 
-19.0017 66.897 -6.39441 99.7176 -23.6376 98.8073 -177.121 56.2152 99.2253 -108.747 30.0887 0.390494 38.9621 -9.87195 5.99896 72.3147 39.8349 -11.6048 156.09 61.6603 105.199 -76.1736 7.28466 0.961312 63.268 -3.76838 -2.09127 24.9741 -2.33296 21.3085 0.952488 10.5065 -91.3496 5.86874 1.33699 -2.69081 -5.80443 1.21733 -2.74699 -28.3294 2.08367 -2.16493 -8.31675 2.08374 -2.16491 78.3889 -48.0208 -119.118 2.1907 2.23446 -1.44446 -8.98839 -9.43674 -46.4505 -13.07 -0.951792 3.39103 -96.9337 -36.294 63.3417 -32.9291 9.24507 25.7432 7.19577 12.5077 -37.5363 14.5547 1.49527 6.25734 -0.00342077 -23.6256 -0.41148 21.4777 -24.2498 -3.57973 
-17.7113 65.2416 -4.85205 99.6153 -23.2018 98.5769 -177.21 54.7671 99.0563 -110.019 30.7713 0.263163 36.9116 -11.6589 3.05667 83.2895 49.2808 -11.719 152.842 63.4039 108.624 -81.3794 8.31075 -0.14111 65.7542 -4.56032 -2.46634 31.7038 -0.589289 20.7974 0.983282 10.5384 -91.4601 5.80516 1.35315 -2.90693 -5.86846 1.22393 -2.96361 -28.3906 2.16403 -2.3663 -8.37793 2.16399 -2.36631 78.9657 -47.0677 -118.669 1.94165 2.31756 -1.91393 -9.64594 -11.5522 -43.8731 -12.9725 -0.892731 2.87947 -97.3537 -36.7187 62.818 -32.7692 9.73178 26.6533 6.90452 12.609 -37.4522 14.8056 1.54379 6.41903 1.00912 -24.0734 0.922196 21.0784 -24.857 -3.6554 
-16.4883 63.6887 -3.5563 99.4916 -22.9144 98.2225 -175.873 53.3701 98.1439 -110.616 31.0818 0.156625 36.7218 -11.1668 5.50912 89.4797 63.3778 -0.0101476 148.919 64.7247 112.173 -85.7429 9.18326 -0.960305 67.9948 -5.21283 -2.73514 35.4873 0.31049 21.1151 1.03664 10.5649 -91.5425 5.75309 1.42606 -3.0696 -5.92085 1.28962 -3.12932 -28.4414 2.28238 -2.49962 -8.42879 2.28239 -2.49961 79.3947 -46.3262 -118.34 1.62542 2.40549 -1.7824 -9.39411 -12.5589 -41.9314 -12.0404 -0.50451 -0.694332 -97.6064 -36.9539 62.4973 -32.623 10.6093 27.291 6.45338 13.1126 -36.8877 14.8443 1.54301 6.38819 1.89763 -24.6205 2.04497 20.9243 -25.5618 -3.75076 
-15.3605 62.2502 -2.43753 99.1542 -22.5354 98.1314 -175.616 52.7871 98.1925 -112.928 28.6892 0.394808 38.7588 -8.24358 8.8747 97.2555 66.3469 -5.41214 143.729 65.5378 116.68 -89.4197 9.03002 -1.75439 69.7243 -5.90989 -3.03834 37.5796 0.821443 18.8166 1.09023 10.5673 -91.6632 5.74883 1.48264 -3.30826 -5.92564 1.33568 -3.37023 -28.4431 2.40802 -2.71037 -8.43047 2.40801 -2.71038 79.4238 -45.766 -118.543 1.3775 3.22524 -1.27762 -10.592 -15.0391 -40.1912 -9.7807 -0.440326 -0.801232 -97.7636 -37.1241 62.3093 -32.6765 10.5172 28.175 6.55735 13.6384 -36.6072 14.9059 1.61473 6.81928 2.95486 -25.0927 3.15731 20.7717 -26.2364 -3.98913 
